HIERARCHY
ROOT Hips
{
	OFFSET 0.00000 0.00000 0.00000
	CHANNELS 6 Xposition Yposition Zposition Zrotation Yrotation Xrotation 
	JOINT LHipJoint
	{
		OFFSET 0 0 0
		CHANNELS 3 Zrotation Yrotation Xrotation
		JOINT LeftHip
		{
			OFFSET 1.54859 -1.61379 0.86856
			CHANNELS 3 Zrotation Yrotation Xrotation
			JOINT LeftKnee
			{
				OFFSET 2.25087 -6.18423 0.00000
				CHANNELS 3 Zrotation Yrotation Xrotation
				JOINT LeftAnkle
				{
					OFFSET 2.40328 -6.60297 0.00000
					CHANNELS 3 Zrotation Yrotation Xrotation
					JOINT LeftToe
					{
						OFFSET 0.17435 -0.47901 2.02453
						CHANNELS 3 Zrotation Yrotation Xrotation
						End Site
						{
							OFFSET 0.00000 -0.00000 1.04844
						}
					}
				}
			}
		}
	}
	JOINT RHipJoint
	{
		OFFSET 0 0 0
		CHANNELS 3 Zrotation Yrotation Xrotation
		JOINT RightHip
		{
			OFFSET -1.54669 -1.61379 0.86856
			CHANNELS 3 Zrotation Yrotation Xrotation
			JOINT RightKnee
			{
				OFFSET -2.28132 -6.26789 0.00000
				CHANNELS 3 Zrotation Yrotation Xrotation
				JOINT RightAnkle
				{
					OFFSET -2.51636 -6.91365 0.00000
					CHANNELS 3 Zrotation Yrotation Xrotation
					JOINT RightToe
					{
						OFFSET -0.15124 -0.41552 2.21090
						CHANNELS 3 Zrotation Yrotation Xrotation
						End Site
						{
							OFFSET -0.00000 -0.00000 1.13399
						}
					}
				}
			}
		}
	}
	JOINT lowerback
	{
		OFFSET 0 0 0
		CHANNELS 3 Zrotation Yrotation Xrotation
		JOINT Chest
		{
			OFFSET -0.04287 2.26161 -0.25690
			CHANNELS 3 Zrotation Yrotation Xrotation
			JOINT Chest2
			{
				OFFSET 0.02248 2.28395 -0.10140
				CHANNELS 3 Zrotation Yrotation Xrotation
				JOINT lowerneck
				{
					OFFSET 0 0 0
					CHANNELS 3 Zrotation Yrotation Xrotation
					JOINT Neck
					{
						OFFSET -0.11644 1.38496 0.11345
						CHANNELS 3 Zrotation Yrotation Xrotation
						JOINT Head
						{
							OFFSET 0.29383 1.36600 0.06642
							CHANNELS 3 Zrotation Yrotation Xrotation
							End Site
							{
								OFFSET 0.11075 1.41395 -0.00294
							}
						}
					}
				}
				JOINT LeftCollar
				{
					OFFSET 0 0 0
					CHANNELS 3 Zrotation Yrotation Xrotation
					JOINT LeftShoulder
					{
						OFFSET 3.51628 0.59542 -0.30346
CHANNELS 3 Zrotation Xrotation Yrotation
						JOINT LeftElbow
						{
OFFSET 0 -4.764050 0.000000
CHANNELS 3 Zrotation Xrotation Yrotation
							JOINT LeftWrist
							{
OFFSET 0 -3.137590 -0.000000
CHANNELS 3 Zrotation Xrotation Yrotation
								JOINT lhand
								{
									OFFSET 0 0 0
CHANNELS 3 Zrotation Xrotation Yrotation
									JOINT LFingers
									{
OFFSET 0 -0.732260 -0.000000
CHANNELS 3 Zrotation Xrotation Yrotation
										End Site
										{
OFFSET 0 -0.590370 -0.000000
										}
									}
								}
								JOINT LThumb
								{
OFFSET 0 0.000000 0.000000
CHANNELS 3 Zrotation Xrotation Yrotation
									End Site
									{
OFFSET 0 -0.599380 0.599380
									}
								}
							}
						}
					}
				}
				JOINT RightCollar
				{
					OFFSET 0 0 0
					CHANNELS 3 Zrotation Yrotation Xrotation
					JOINT RightShoulder
					{
						OFFSET -3.30990 0.84213 -0.36430
CHANNELS 3 Zrotation Xrotation Yrotation
						JOINT RightElbow
						{
OFFSET 0 -5.101610 -0.000000
CHANNELS 3 Zrotation Xrotation Yrotation
							JOINT RightWrist
							{
OFFSET 0 -3.232670 -0.000000
CHANNELS 3 Zrotation Xrotation Yrotation
								JOINT rhand
								{
									OFFSET 0 0 0
CHANNELS 3 Zrotation Xrotation Yrotation
									JOINT RFingers
									{
OFFSET 0 -0.702000 -0.000000
CHANNELS 3 Zrotation Xrotation Yrotation
										End Site
										{
OFFSET 0 -0.565970 -0.000000
										}
									}
								}
								JOINT RThumb
								{
OFFSET 0 0.000000 0.000000
CHANNELS 3 Zrotation Xrotation Yrotation
									End Site
									{
OFFSET 0 -0.574610 0.574610
									}
								}
							}
						}
					}
				}
			}
		}
	}
}
MOTION
Frames: 11
Frame Time: 0.008333333333333333
-36.624500 15.838000 1.239200 163.131000 68.128200 174.536000 0.000000 0.000000 0.000000 -16.016900 -4.449700 -21.908500 2.025800 8.919600 25.544100 0.128600 -6.261300 -7.225500 0.656900 -5.184200 -14.434600 0.000000 0.000000 0.000000 8.245800 -7.059700 -25.100000 -5.149300 -13.550000 41.463800 -1.751400 -10.966400 -31.013100 -0.008500 0.596400 -1.638800 -8.567900 -2.470500 8.700000 0.641800 -3.485700 6.462400 5.686700 -1.929300 2.494800 -9.367200 1.293700 -17.679500 11.849500 5.661200 -14.912300 5.410800 3.824600 -2.186600 -0.000000 -0.000000 0.000000 32.937000 -19.251700 -89.314900 116.263200 -57.226200 82.532800 40.617100 -37.998800 -46.453400 0.000000 0.000000 0.000000 -7.125000 0.000000 0.000000 0.555600 84.168600 -0.496300 -0.000000 -0.000000 0.000000 -34.123900 0.666200 83.147700 -127.030200 -54.125200 -91.436400 -63.068000 -99.775700 -29.860700 0.000000 0.000000 0.000000 7.125000 0.000000 -0.000000 -17.228200 -19.838900 -22.870700
-36.604697 15.832036 1.231783 163.248367 67.845448 174.290943 0.000000 0.000000 0.000000 -16.072755 -4.388684 -21.360123 1.994833 8.854799 25.342435 0.114837 -6.374691 -7.007816 0.512580 -4.502017 -12.507559 0.000000 0.000000 0.000000 8.200115 -7.156576 -24.470995 -5.136034 -13.535358 41.407028 -1.803814 -10.981195 -31.346087 -0.005327 0.399514 -1.097802 -8.659424 -2.343002 9.091747 0.621691 -3.351894 6.458271 5.730206 -1.851310 2.259301 -9.455665 1.093908 -17.696742 12.116233 5.414652 -14.790230 5.508173 3.705551 -2.121991 0.000000 0.000000 0.000000 33.255000 -18.987452 -88.659784 117.610859 -56.897380 83.660558 40.596379 -37.517212 -46.192860 0.000000 0.000000 0.000000 -7.125000 0.000000 0.000000 1.284959 83.909704 -1.135550 0.000000 0.000000 0.000000 -33.915506 0.650526 83.077203 -128.195883 -53.681078 -92.374115 -63.260108 -99.400163 -30.212840 0.000000 0.000000 0.000000 7.125000 0.000000 0.000000 -17.201821 -20.408036 -22.926172
-36.584893 15.826072 1.224367 163.365735 67.562696 174.045886 0.000000 0.000000 0.000000 -16.128609 -4.327669 -20.811747 1.963867 8.789999 25.140769 0.101074 -6.488083 -6.790132 0.368261 -3.819834 -10.580519 0.000000 0.000000 0.000000 8.154429 -7.253452 -23.841991 -5.122768 -13.520716 41.350256 -1.856228 -10.995990 -31.679073 -0.002154 0.202627 -0.556804 -8.750947 -2.215503 9.483493 0.601582 -3.218087 6.454142 5.773712 -1.773320 2.023802 -9.544130 0.894116 -17.713984 12.382967 5.168105 -14.668161 5.605546 3.586501 -2.057381 0.000000 0.000000 0.000000 33.573001 -18.723203 -88.004668 118.958519 -56.568561 84.788316 40.575658 -37.035624 -45.932320 0.000000 0.000000 0.000000 -7.125000 0.000000 0.000000 2.014319 83.650808 -1.774801 0.000000 0.000000 0.000000 -33.707112 0.634851 83.006706 -129.361565 -53.236955 -93.311830 -63.452215 -99.024626 -30.564980 0.000000 0.000000 0.000000 7.125000 0.000000 0.000000 -17.175442 -20.977171 -22.981645
-36.564987 15.819168 1.217347 163.478254 67.286129 173.801711 0.000000 0.000000 0.000000 -16.173401 -4.291261 -20.281969 1.940745 8.741491 24.989936 0.088002 -6.641581 -6.606444 0.241570 -3.040543 -8.399321 0.000000 0.000000 0.000000 8.112476 -7.343217 -23.211547 -5.105433 -13.501504 41.275957 -1.907598 -11.013503 -32.003892 -0.000964 -0.000327 0.000884 -8.821448 -2.084244 9.823028 0.558775 -3.069810 6.483774 5.775613 -1.689615 1.847831 -9.643643 0.667865 -17.717387 12.692099 4.896993 -14.586962 5.717639 3.456757 -2.003012 0.000000 0.000000 0.000000 33.952528 -18.574324 -87.312986 120.247384 -56.236260 85.862995 40.494263 -36.633089 -45.613236 0.000000 0.000000 0.000000 -7.125000 0.000000 0.000000 2.611296 83.309612 -2.286326 0.000000 0.000000 0.000000 -33.443392 0.533248 82.868851 -130.474889 -52.794684 -94.202606 -63.661379 -98.661150 -30.908012 0.000000 0.000000 0.000000 7.125000 0.000000 0.000000 -17.159626 -21.547086 -23.049883
-36.544916 15.810757 1.210962 163.583005 67.019472 173.558948 0.000000 0.000000 0.000000 -16.200468 -4.294281 -19.781992 1.930194 8.719088 24.920547 0.076036 -6.859341 -6.477225 0.143127 -2.105657 -5.810894 0.000000 0.000000 0.000000 8.076501 -7.421589 -22.578796 -5.081577 -13.474972 41.173576 -1.957298 -11.035371 -32.315622 -0.002952 -0.213003 0.585312 -8.858263 -1.946959 10.078904 0.479599 -2.898347 6.567498 5.710851 -1.596754 1.767241 -9.760857 0.399220 -17.698616 13.069165 4.586524 -14.571249 5.853319 3.309875 -1.965049 0.000000 0.000000 0.000000 34.430637 -18.610299 -86.562715 121.442045 -55.898379 86.852627 40.315651 -36.357218 -45.200347 0.000000 0.000000 0.000000 -7.125000 0.000000 0.000000 2.996161 82.836549 -2.593201 0.000000 0.000000 0.000000 -33.091022 0.293964 82.623067 -131.504318 -52.355379 -95.018175 -63.897873 -98.317000 -31.236449 0.000000 0.000000 0.000000 7.125000 0.000000 0.000000 -17.160735 -22.118248 -23.138578
-36.524845 15.802347 1.204578 163.687756 66.752815 173.316185 0.000000 0.000000 0.000000 -16.227536 -4.297301 -19.282015 1.919642 8.696685 24.851159 0.064069 -7.077101 -6.348007 0.044684 -1.170771 -3.222468 0.000000 0.000000 0.000000 8.040526 -7.499961 -21.946045 -5.057721 -13.448441 41.071195 -2.006997 -11.057239 -32.627353 -0.004940 -0.425678 1.169739 -8.895079 -1.809673 10.334780 0.400424 -2.726884 6.651223 5.646089 -1.503892 1.686652 -9.878072 0.130575 -17.679844 13.446231 4.276055 -14.555537 5.988998 3.162994 -1.927086 0.000000 0.000000 0.000000 34.908746 -18.646274 -85.812444 122.636706 -55.560499 87.842259 40.137038 -36.081348 -44.787459 0.000000 0.000000 0.000000 -7.125000 0.000000 0.000000 3.381026 82.363486 -2.900076 0.000000 0.000000 0.000000 -32.738653 0.054680 82.377284 -132.533748 -51.916073 -95.833744 -64.134366 -97.972850 -31.564886 0.000000 0.000000 0.000000 7.125000 0.000000 0.000000 -17.161843 -22.689410 -23.227272
-36.506273 15.797021 1.199868 163.779873 66.515071 172.973229 0.000000 0.000000 0.000000 -16.291331 -4.172303 -18.753009 1.912763 8.681980 24.805600 0.059184 -7.260896 -6.351302 0.030950 -1.109245 -3.049708 0.000000 0.000000 0.000000 8.018126 -7.586061 -21.236488 -5.030251 -13.417648 40.952801 -2.057050 -11.107431 -32.954039 -0.011952 -0.650988 1.789191 -8.987281 -1.633280 10.732837 0.365499 -2.523834 6.713381 5.659601 -1.392314 1.507426 -9.854486 -0.133897 -17.368778 13.590707 3.942286 -14.857740 6.019137 2.987201 -2.020580 0.000000 0.000000 0.000000 35.328355 -18.769984 -85.076658 123.738284 -55.217742 88.747504 39.975526 -35.747741 -44.427606 0.000000 0.000000 0.000000 -7.125000 0.000000 0.000000 3.612457 81.946338 -3.068943 0.000000 0.000000 0.000000 -32.470669 -0.244720 82.093069 -133.435070 -51.502948 -96.539922 -64.257179 -97.422349 -31.858652 0.000000 0.000000 0.000000 7.125000 0.000000 0.000000 -17.114266 -23.121006 -23.220974
-36.488152 15.792625 1.195663 163.868185 66.286032 172.600100 0.000000 0.000000 0.000000 -16.366186 -4.008753 -18.215260 1.906990 8.669593 24.767217 0.056432 -7.434462 -6.394502 0.042725 -1.310719 -3.604392 0.000000 0.000000 0.000000 7.999814 -7.674488 -20.503803 -5.001693 -13.385573 40.829584 -2.107208 -11.166153 -33.285229 -0.020478 -0.880103 2.419189 -9.096161 -1.445110 11.173710 0.343899 -2.311273 6.769044 5.696684 -1.275099 1.298497 -9.788501 -0.397113 -16.969691 13.665142 3.601501 -15.255680 6.017493 2.802701 -2.153660 0.000000 0.000000 0.000000 35.730347 -18.920115 -84.345234 124.811832 -54.873515 89.627338 39.819164 -35.396748 -44.083724 0.000000 0.000000 0.000000 -7.125000 0.000000 0.000000 3.797683 81.546028 -3.196250 0.000000 0.000000 0.000000 -32.228097 -0.562223 81.797281 -134.297816 -51.097706 -97.213159 -64.345759 -96.809707 -32.141978 0.000000 0.000000 0.000000 7.125000 0.000000 0.000000 -17.052027 -23.510573 -23.186070
-36.469715 15.789175 1.191025 163.948551 66.072063 172.248708 0.000000 0.000000 0.000000 -16.443658 -3.845203 -17.712447 1.902106 8.659118 24.734747 0.055853 -7.580220 -6.463389 0.072748 -1.630877 -4.489970 0.000000 0.000000 0.000000 7.983499 -7.746122 -19.801537 -4.972679 -13.352913 40.704264 -2.157243 -11.221515 -33.612106 -0.029646 -1.104572 3.036573 -9.211562 -1.253055 11.579968 0.330835 -2.093045 6.816019 5.744081 -1.156121 1.098595 -9.747138 -0.659108 -16.597529 13.750819 3.262246 -15.608845 6.024397 2.620404 -2.269777 0.000000 0.000000 0.000000 36.135320 -19.089358 -83.649845 125.830460 -54.543377 90.461298 39.790000 -34.926533 -43.536012 0.000000 0.000000 0.000000 -7.125000 0.000000 0.000000 4.493138 80.979546 -3.694715 0.000000 0.000000 0.000000 -32.006251 -0.909766 81.496824 -135.150627 -50.692148 -97.877211 -64.452686 -96.177812 -32.413120 0.000000 0.000000 0.000000 7.125000 0.000000 0.000000 -17.003641 -23.901514 -23.171003
-36.449529 15.790971 1.183990 163.984870 65.941621 172.017796 0.000000 0.000000 0.000000 -16.535641 -3.681654 -17.403278 1.902144 8.659232 24.735053 0.067322 -7.571848 -6.674650 0.203916 -2.608887 -7.209642 0.000000 0.000000 0.000000 7.978262 -7.724675 -19.267879 -4.941139 -13.317015 40.567285 -2.206599 -11.258255 -33.915082 -0.042376 -1.303294 3.584032 -9.363107 -1.039462 11.794364 0.365090 -1.843400 6.814834 5.848641 -1.027361 0.948732 -9.842255 -0.914334 -16.374608 13.898808 2.931476 -15.713826 6.078684 2.450317 -2.291874 0.000000 0.000000 0.000000 36.556810 -19.364541 -83.154188 126.544680 -54.291324 91.040986 40.465875 -33.795487 -41.858501 0.000000 0.000000 0.000000 -7.125000 0.000000 0.000000 8.016718 79.492002 -6.250455 0.000000 0.000000 0.000000 -31.899282 -1.423812 81.170489 -135.948381 -50.284841 -98.490350 -64.661309 -95.439201 -32.616735 0.000000 0.000000 0.000000 7.125000 0.000000 0.000000 -17.032047 -24.300066 -23.265890
-36.429344 15.792768 1.176956 164.021189 65.811179 171.786885 0.000000 0.000000 0.000000 -16.627623 -3.518104 -17.094109 1.902182 8.659347 24.735358 0.078791 -7.563475 -6.885911 0.335084 -3.586897 -9.929313 0.000000 0.000000 0.000000 7.973024 -7.703228 -18.734221 -4.909599 -13.281117 40.430305 -2.255954 -11.294994 -34.218058 -0.055107 -1.502015 4.131491 -9.514652 -0.825868 12.008760 0.399344 -1.593756 6.813649 5.953201 -0.898601 0.798869 -9.937372 -1.169560 -16.151686 14.046798 2.600707 -15.818806 6.132971 2.280230 -2.313972 0.000000 0.000000 0.000000 36.978300 -19.639723 -82.658531 127.258900 -54.039271 91.620673 41.141750 -32.664441 -40.180990 0.000000 0.000000 0.000000 -7.125000 0.000000 0.000000 11.540298 78.004458 -8.806194 0.000000 0.000000 0.000000 -31.792314 -1.937857 80.844154 -136.746134 -49.877535 -99.103489 -64.869932 -94.700590 -32.820350 0.000000 0.000000 0.000000 7.125000 0.000000 0.000000 -17.060452 -24.698618 -23.360778
